<?xml version="1.0" encoding="utf-8"?>
<!-- Generator: Adobe Illustrator 28.0.0, SVG Export Plug-In . SVG Version: 6.00 Build 0)  -->
<svg version="1.1" id="Calque_1" xmlns="http://www.w3.org/2000/svg" xmlns:xlink="http://www.w3.org/1999/xlink" x="0px" y="0px"
	 viewBox="0 0 2571 1077.6" style="enable-background:new 0 0 2571 1077.6;" xml:space="preserve">
<style type="text/css">
	.st0{fill:#55FFFF;}
</style>
<path class="st0" d="M1075.5,240.1c39.3-35.1,175.1,24.8,98.8,310.3c-76.3,285.5,198,234.1,211,135.6s-147.7-155.3-146.1-272.2
	S1309,225.5,1408,225.5s256.4,78,116.9,269.2s13,331.3-11.4,438.4c-24.3,107.1-202.2,200.7-282.4,103.9
	C1116,898.1,1097,868,1039,779.7c-101.4-154.6,33.8-195.4,70.9-327.2C1148.2,316.6,1014.7,294.2,1075.5,240.1"/>
<path class="st0" d="M2267.8,581.1c0-15.8,7.1-30,18.3-40.5c12.8-14.1,31.1-23,51.6-23c82.9,0,203.8-7.1,143.3-134.9
	c-52.6-111.2-150.6-168.9-243.1-168.9c-37.1,0-73.3,9.3-105.4,28.1c-57.4,33.8-91.7,69.1-46.5,265.3c36.6,158.7,40.3,297-1,404.9
	s117.8,157.2,207.9,157.2l0,0c1.1,0,2.3,0,3.4,0c110,0,274.4-101.4,274.4-238C2571,632.8,2267.8,807.1,2267.8,581.1L2267.8,581.1z
	 M2224.8,345.7c41.6-47.2,118.2-13.3,145.5,37.3c27.2,50.5-37.1,46-82.1,47.5C2188.2,433.7,2208.8,363.9,2224.8,345.7L2224.8,345.7z
	"/>
<path class="st0" d="M555.7,769.7c-115.6-132-124.7-264.1-74.5-379.4C623.8,62.8,497.1,0,367.1,0C317,0,205.3,19.2,205.3,183.8
	c0,194.6,194.7,218.7,122,351.1c-26.7,48.6-95.4,48.5-132.7,2.7c-45.7-56.1-128.1-45.9-160,48.8C24.5,616.1-81.4,1070,136.1,1070
	c140.7,0,63.9-116,175.2-121.3C425,943.1,369,1070,464.7,1070c65.8,0,99.7-20.1,139.2-66.3C640.6,960.7,656.5,884.7,555.7,769.7
	L555.7,769.7z M122.2,906c-40,0-55-48.7-46.6-152.1c7.3-89.8,32.8-93.3,46.6-93.3c37.6,0,49.1,80.1,49.1,113.8
	C171.3,808,162.2,906,122.2,906z"/>
<path class="st0" d="M1086.7,423.6c-0.4-169-207.7-202-334.3-177.7c-109,20.9-263.9,102.3-269.2,256.9
	C475,741.7,666.8,749.7,666.8,959c0,92.8,64.7,110.9,164.8,110.9c138.9,0,358.4-37,200.1-244.6C873.4,617.8,1087,527.1,1086.7,423.6
	L1086.7,423.6z M832.8,543.2c-50.9,24.2-148.9,41.6-164.5-12.9c-25.7-89.6,56.1-128.7,80.8-139.7c57.5-25.6,145.6-15.1,166,29.1
	C935.5,464,883.7,519,832.8,543.2z"/>
<path class="st0" d="M1856.5,683c-51.3-22.8-91.2-44.8-88.2-115.6c2.4-55.4,72.5-99.3,117.8-61.2c25.3,21.3,25.1,33,36.5,56.2
	c1.4,2.8,3,5.6,4.7,8.5c32,56.7,146.2,32.9,122.9-88c-17.6-91.5-92.6-257.4-233.6-257.4c-100.8,0-148.1,68.1-230.6,220.6
	c-48.1,88.8-86.7,128.2-86.7,196.4s-0.1,145.7,165.5,351.3c124.7,154.9,405.7,49.9,405.7-165.1
	C2070.6,648.1,1942.6,717.8,1856.5,683"/>
</svg>
