<svg width="61" height="61" viewBox="0 0 61 61" fill="none" xmlns="http://www.w3.org/2000/svg">
<path fill-rule="evenodd" clip-rule="evenodd" d="M13.9021 13.9021C14.6465 13.1576 15.8535 13.1576 16.5979 13.9021L30.5 27.8042L44.4021 13.9021C45.1465 13.1576 46.3535 13.1576 47.0979 13.9021C47.8424 14.6465 47.8424 15.8535 47.0979 16.5979L33.1958 30.5L47.0979 44.4021C47.8424 45.1465 47.8424 46.3535 47.0979 47.0979C46.3535 47.8424 45.1465 47.8424 44.4021 47.0979L30.5 33.1958L16.5979 47.0979C15.8535 47.8424 14.6465 47.8424 13.9021 47.0979C13.1576 46.3535 13.1576 45.1465 13.9021 44.4021L27.8042 30.5L13.9021 16.5979C13.1576 15.8535 13.1576 14.6465 13.9021 13.9021Z" fill="black"/>
</svg>
